<?xml version="1.0" encoding="UTF-8"?>
<svg xmlns="http://www.w3.org/2000/svg" xmlns:xlink="http://www.w3.org/1999/xlink" width="512" height="512" viewBox="0 0 512 512"><defs><linearGradient id="a" data-name="New Gradient Swatch 1" x1="-34.178" y1="492.046" x2="497.376" y2="-39.508" gradientUnits="userSpaceOnUse"><stop offset="0" stop-color="#003f8a"/><stop offset="0.518" stop-color="#00d7df"/><stop offset="1" stop-color="#006df0"/></linearGradient><linearGradient id="b" x1="-14.179" y1="512.046" x2="517.375" y2="-19.509" xlink:href="#a"/><linearGradient id="c" x1="15.138" y1="541.363" x2="546.692" y2="9.808" xlink:href="#a"/></defs><g><path d="M220.438,337.344,200,323.719V252a28.032,28.032,0,0,0-28-28H132a28.032,28.032,0,0,0-28,28v72a28.032,28.032,0,0,0,28,28h40a27.992,27.992,0,0,0,23.158-12.28l16.4,10.936a8,8,0,0,0,8.876-13.312ZM172,336H132a12.013,12.013,0,0,1-12-12V252a12.013,12.013,0,0,1,12-12h40a12.013,12.013,0,0,1,12,12v61.052l-11.562-7.708a8,8,0,1,0-8.876,13.312l18.282,12.188A11.989,11.989,0,0,1,172,336Z" fill="url(#a)"/><path d="M476,56H228a28.031,28.031,0,0,0-28,28v84H36A28.031,28.031,0,0,0,8,196V388a28.031,28.031,0,0,0,28,28H56v40a8,8,0,0,0,13.66,5.66L115.31,416H284a28.031,28.031,0,0,0,28-28V304h84.69l45.65,45.66A8,8,0,0,0,456,344V304h20a28.031,28.031,0,0,0,28-28V84A28.031,28.031,0,0,0,476,56ZM296,388a12.01,12.01,0,0,1-12,12H112a8.008,8.008,0,0,0-5.66,2.34L72,436.69V408a8,8,0,0,0-8-8H36a12.01,12.01,0,0,1-12-12V196a12.01,12.01,0,0,1,12-12H284a12.01,12.01,0,0,1,12,12ZM488,276a12.01,12.01,0,0,1-12,12H448a8,8,0,0,0-8,8v28.69l-34.34-34.35A8.008,8.008,0,0,0,400,288H312V196a28.031,28.031,0,0,0-28-28H216V84a12.01,12.01,0,0,1,12-12H476a12.01,12.01,0,0,1,12,12Z" fill="url(#b)"/><path d="M383.822,118.324A8,8,0,0,0,376,112H361a8,8,0,0,0-7.808,6.257l-25,112a8,8,0,0,0,6.065,9.551,8.092,8.092,0,0,0,1.751.194,8,8,0,0,0,7.8-6.259L351.34,200h33.621l7.217,33.676a8,8,0,0,0,15.644-3.352ZM354.911,184l12.5-56h2.121l12,56Z" fill="url(#c)"/></g></svg>
